HIERARCHY
ROOT Hips
{
	OFFSET 0.000000 1.471914 24.280096
	CHANNELS 6 Xposition Yposition Zposition Xrotation Yrotation Zrotation
	JOINT Spine
	{
		OFFSET 0.000000 0.900110 1.860670
		CHANNELS 6 Xposition Yposition Zposition Xrotation Yrotation Zrotation
		JOINT Spine1
		{
			OFFSET 0.000000 0.400320 2.270309
			CHANNELS 6 Xposition Yposition Zposition Xrotation Yrotation Zrotation
			JOINT Spine2
			{
				OFFSET 0.000000 0.200920 2.296560
				CHANNELS 6 Xposition Yposition Zposition Xrotation Yrotation Zrotation
				JOINT Spine3
				{
					OFFSET 0.000000 0.000000 2.305330
					CHANNELS 6 Xposition Yposition Zposition Xrotation Yrotation Zrotation
					JOINT Neck
					{
						OFFSET 0.000000 -0.864490 6.051487
						CHANNELS 6 Xposition Yposition Zposition Xrotation Yrotation Zrotation
						JOINT Head
						{
							OFFSET 0.000000 -0.550429 3.121674
							CHANNELS 6 Xposition Yposition Zposition Xrotation Yrotation Zrotation
							End Site
							{
								OFFSET 0.000000 0.000000 3.731750
							}
						}
					}
					JOINT RightShoulder
					{
						OFFSET -0.788280 -1.313800 4.256718
						CHANNELS 6 Xposition Yposition Zposition Xrotation Yrotation Zrotation
						JOINT RightArm
						{
							OFFSET -3.915130 0.000000 0.000000
							CHANNELS 6 Xposition Yposition Zposition Xrotation Yrotation Zrotation
							JOINT RightForeArm
							{
								OFFSET -6.914910 0.000000 0.000000
								CHANNELS 6 Xposition Yposition Zposition Xrotation Yrotation Zrotation
								JOINT RightHand
								{
									OFFSET -6.096219 0.000000 0.000000
									CHANNELS 6 Xposition Yposition Zposition Xrotation Yrotation Zrotation
									JOINT RightHandEnd
									{
										OFFSET -1.749950 0.000000 0.000000
										CHANNELS 6 Xposition Yposition Zposition Xrotation Yrotation Zrotation
										End Site
										{
											OFFSET -1.749950 0.000000 0.000000
										}
									}
									JOINT RightHandThumb1
									{
										OFFSET -0.699980 -1.166630 -0.466648
										CHANNELS 6 Xposition Yposition Zposition Xrotation Yrotation Zrotation
										End Site
										{
											OFFSET -1.690319 -0.452920 0.000000
										}
									}
								}
							}
						}
					}
					JOINT LeftShoulder
					{
						OFFSET 0.788280 -1.313800 4.256718
						CHANNELS 6 Xposition Yposition Zposition Xrotation Yrotation Zrotation
						JOINT LeftArm
						{
							OFFSET 3.915130 0.000000 0.000000
							CHANNELS 6 Xposition Yposition Zposition Xrotation Yrotation Zrotation
							JOINT LeftForeArm
							{
								OFFSET 6.914910 0.000000 0.000000
								CHANNELS 6 Xposition Yposition Zposition Xrotation Yrotation Zrotation
								JOINT LeftHand
								{
									OFFSET 6.096219 0.000000 0.000000
									CHANNELS 6 Xposition Yposition Zposition Xrotation Yrotation Zrotation
									JOINT LeftHandEnd
									{
										OFFSET 1.749950 0.000000 0.000000
										CHANNELS 6 Xposition Yposition Zposition Xrotation Yrotation Zrotation
										End Site
										{
											OFFSET 1.749950 0.000000 0.000000
										}
									}
									JOINT LeftHandThumb1
									{
										OFFSET 0.699980 -1.166630 -0.466648
										CHANNELS 6 Xposition Yposition Zposition Xrotation Yrotation Zrotation
										End Site
										{
											OFFSET 1.690319 -0.452920 0.000000
										}
									}
								}
							}
						}
					}
				}
			}
		}
	}
	JOINT RightUpLeg
	{
		OFFSET -2.338570 -0.252550 -0.551512
		CHANNELS 6 Xposition Yposition Zposition Xrotation Yrotation Zrotation
		JOINT RightLeg
		{
			OFFSET 0.000000 0.000000 -10.744959
			CHANNELS 6 Xposition Yposition Zposition Xrotation Yrotation Zrotation
			JOINT RightFoot
			{
				OFFSET 0.000000 -0.000001 -10.930849
				CHANNELS 6 Xposition Yposition Zposition Xrotation Yrotation Zrotation
				JOINT RightToeBase
				{
					OFFSET 0.000000 -4.087269 -1.487650
					CHANNELS 6 Xposition Yposition Zposition Xrotation Yrotation Zrotation
					End Site
					{
						OFFSET 0.000000 -1.891870 0.000000
					}
				}
			}
		}
	}
	JOINT LeftUpLeg
	{
		OFFSET 2.338570 -0.252550 -0.551512
		CHANNELS 6 Xposition Yposition Zposition Xrotation Yrotation Zrotation
		JOINT LeftLeg
		{
			OFFSET 0.000000 0.000000 -10.744959
			CHANNELS 6 Xposition Yposition Zposition Xrotation Yrotation Zrotation
			JOINT LeftFoot
			{
				OFFSET 0.000000 -0.000001 -10.930849
				CHANNELS 6 Xposition Yposition Zposition Xrotation Yrotation Zrotation
				JOINT LeftToeBase
				{
					OFFSET 0.000000 -4.087269 -1.487650
					CHANNELS 6 Xposition Yposition Zposition Xrotation Yrotation Zrotation
					End Site
					{
						OFFSET 0.000000 -1.891870 0.000000
					}
				}
			}
		}
	}
}
MOTION
Frames: 5
Frame Time: 0.041667
-0.000041 26.540333 40.216373 -9.796163 11.136686 -25.198970 -0.000019 0.900099 1.860704 23.583786 -13.593677 0.424201 0.000005 0.400273 2.270306 -0.000005 -0.000001 0.000008 0.000019 0.200865 2.296537 0.000002 -0.000002 0.000002 0.000026 -0.000001 2.305325 -0.000069 0.000004 -2.065265 -0.000010 -0.864472 6.051476 11.770801 4.705968 -168.597373 0.000019 -0.550442 3.121700 -0.000000 0.000001 -0.000004 -0.788274 -1.313745 4.256784 -134.489813 54.571470 -41.874592 -3.915086 -0.000012 -0.000034 0.000001 -0.000001 -0.000001 -6.914903 0.000001 -0.000001 0.000001 -0.000005 -31.316288 -6.096196 -0.000004 0.000016 -0.000041 0.000011 -0.000103 -1.749914 -0.000016 0.000026 -0.000001 -0.000002 0.000001 -0.699966 -1.166620 -0.466655 -0.000005 -0.000005 -0.000002 0.788263 -1.313770 4.256746 101.703436 -43.280542 -32.847896 3.915182 0.000006 -0.000035 0.000001 0.000001 0.000005 6.914922 -0.000033 -0.000005 0.000003 -0.000006 111.633759 6.096231 0.000073 -0.000015 0.000033 -0.000042 0.000040 1.749975 0.000001 0.000028 0.000000 -0.000006 0.000003 0.699961 -1.166614 -0.466633 0.000012 -0.000009 -0.000021 -2.338565 -0.252536 -0.551513 19.944214 -7.077011 0.357094 0.000016 -0.000023 -10.744970 8.953521 3.463253 -0.947282 -0.000017 0.000071 -10.930838 -0.000012 -0.000001 -0.000002 -0.000001 -4.087272 -1.487641 0.000004 0.000002 -0.000001 2.338575 -0.252537 -0.551480 18.538091 -7.633044 0.329235 -0.000004 -0.000046 -10.744897 9.780256 0.138295 -1.136791 -0.000015 0.000005 -10.930869 0.000012 -0.000001 -0.000003 -0.000013 -4.087243 -1.487654 0.000002 0.000002 -0.000002 
-0.000048 26.540335 40.216370 -9.692241 11.120092 -25.337456 -0.000022 0.900098 1.860710 23.664975 -13.431488 0.423702 0.000006 0.400274 2.270312 -0.000005 -0.000001 0.000011 0.000018 0.200864 2.296534 0.000002 -0.000000 0.000005 0.000026 0.000002 2.305321 -0.000069 0.000009 -2.104625 -0.000011 -0.864478 6.051470 11.573797 4.392156 -169.118421 0.000018 -0.550436 3.121700 0.000001 0.000002 -0.000004 -0.788277 -1.313748 4.256776 -134.994932 55.009200 -41.639770 -3.915097 -0.000009 -0.000034 0.000001 -0.000001 -0.000001 -6.914898 0.000003 -0.000004 0.000002 -0.000005 -31.012925 -6.096190 -0.000003 0.000016 -0.000041 0.000011 -0.000103 -1.749910 -0.000018 0.000025 -0.000002 -0.000002 0.000001 -0.699965 -1.166626 -0.466656 -0.000003 -0.000003 -0.000003 0.788264 -1.313778 4.256733 102.640934 -43.794237 -32.539482 3.915191 0.000006 -0.000039 0.000001 0.000000 -0.000003 6.914923 -0.000032 -0.000008 0.000002 -0.000006 111.541285 6.096231 0.000072 -0.000023 0.000031 -0.000039 0.000044 1.749972 -0.000009 0.000032 -0.000002 -0.000002 -0.000003 0.699966 -1.166620 -0.466629 0.000010 -0.000008 -0.000024 -2.338565 -0.252540 -0.551512 19.826808 -7.219556 0.353853 0.000015 -0.000023 -10.744970 9.020496 3.554136 -0.977053 -0.000019 0.000073 -10.930841 -0.000010 -0.000002 -0.000002 0.000001 -4.087268 -1.487642 0.000001 0.000002 -0.000003 2.338575 -0.252542 -0.551476 18.428873 -7.920599 0.326303 -0.000003 -0.000043 -10.744896 9.820262 0.868456 -1.189944 -0.000015 0.000006 -10.930865 0.000010 -0.000004 -0.000001 -0.000012 -4.087242 -1.487653 -0.000003 0.000000 -0.000005 
-0.000047 26.540335 40.216370 -9.751073 11.234368 -25.536093 -0.000021 0.900095 1.860708 23.947063 -13.311113 0.443146 0.000006 0.400274 2.270310 -0.000005 -0.000002 0.000007 0.000016 0.200868 2.296534 0.000001 -0.000001 0.000001 0.000025 0.000000 2.305332 -0.000066 0.000002 -2.120764 -0.000012 -0.864473 6.051473 11.447400 4.162206 -169.627106 0.000019 -0.550439 3.121700 0.000001 0.000001 -0.000002 -0.788273 -1.313745 4.256784 -135.143530 55.518325 -41.750655 -3.915093 -0.000010 -0.000034 0.000001 -0.000001 -0.000001 -6.914911 0.000004 0.000003 0.000002 -0.000004 -30.733058 -6.096187 -0.000001 0.000016 -0.000041 0.000010 -0.000106 -1.749906 -0.000017 0.000023 -0.000001 -0.000001 0.000004 -0.699961 -1.166621 -0.466662 -0.000002 -0.000003 -0.000003 0.788263 -1.313773 4.256746 102.947569 -43.879048 -33.213318 3.915182 0.000009 -0.000038 0.000001 0.000002 0.000000 6.914921 -0.000036 -0.000009 0.000003 -0.000007 111.570764 6.096227 0.000071 -0.000019 0.000034 -0.000038 0.000041 1.749972 0.000003 0.000028 0.000002 -0.000001 0.000004 0.699961 -1.166610 -0.466633 0.000015 -0.000006 -0.000017 -2.338566 -0.252539 -0.551508 19.877848 -7.334999 0.367089 0.000015 -0.000024 -10.744976 9.114928 3.690121 -1.000072 -0.000019 0.000073 -10.930842 -0.000012 -0.000003 -0.000001 0.000001 -4.087273 -1.487641 -0.000003 0.000002 -0.000002 2.338574 -0.252539 -0.551471 18.443507 -7.945452 0.337984 -0.000005 -0.000047 -10.744902 9.867161 0.876248 -1.193964 -0.000016 0.000007 -10.930870 0.000012 -0.000001 -0.000002 -0.000011 -4.087243 -1.487653 0.000001 0.000000 -0.000001 
-0.000047 26.540333 40.216370 -9.840675 11.387789 -25.665583 -0.000020 0.900102 1.860705 24.164528 -13.300781 0.493871 0.000004 0.400275 2.270306 -0.000005 -0.000003 0.000005 0.000018 0.200867 2.296530 0.000002 -0.000001 0.000002 0.000027 -0.000000 2.305325 -0.000068 0.000003 -2.001472 -0.000010 -0.864475 6.051478 11.484900 3.936471 -169.498849 0.000019 -0.550449 3.121696 -0.000003 0.000001 -0.000001 -0.788276 -1.313743 4.256783 -135.199565 55.477225 -41.818755 -3.915098 -0.000015 -0.000034 0.000000 0.000000 -0.000001 -6.914914 0.000003 0.000003 0.000002 -0.000003 -30.665873 -6.096196 -0.000007 0.000015 -0.000044 0.000010 -0.000104 -1.749917 -0.000015 0.000030 -0.000004 0.000002 0.000004 -0.699963 -1.166621 -0.466652 -0.000005 -0.000001 -0.000002 0.788260 -1.313774 4.256746 103.772621 -44.281185 -33.212813 3.915193 0.000012 -0.000034 0.000001 -0.000001 0.000004 6.914925 -0.000033 -0.000009 0.000003 -0.000005 111.165543 6.096231 0.000072 -0.000015 0.000028 -0.000042 0.000039 1.749968 -0.000004 0.000032 -0.000001 -0.000003 0.000001 0.699960 -1.166617 -0.466633 0.000010 -0.000004 -0.000015 -2.338566 -0.252536 -0.551513 19.871233 -7.449597 0.405507 0.000017 -0.000020 -10.744973 8.967536 3.993144 -0.985147 -0.000020 0.000071 -10.930840 -0.000012 -0.000001 -0.000002 -0.000000 -4.087272 -1.487641 0.000004 0.000002 -0.000006 2.338575 -0.252536 -0.551473 18.498734 -7.805708 0.374688 -0.000004 -0.000048 -10.744899 9.939855 0.325162 -1.160913 -0.000015 0.000006 -10.930868 0.000015 -0.000004 -0.000002 -0.000014 -4.087237 -1.487654 0.000000 -0.000000 -0.000005 
-0.000046 26.540335 40.216370 -9.838775 11.520651 -25.596486 -0.000021 0.900099 1.860709 24.176288 -13.447398 0.535155 0.000005 0.400273 2.270310 -0.000006 -0.000002 0.000008 0.000019 0.200869 2.296530 -0.000000 -0.000000 0.000002 0.000024 0.000000 2.305328 -0.000068 0.000004 -2.047915 -0.000013 -0.864476 6.051470 11.367987 3.928439 -169.463714 0.000019 -0.550447 3.121701 -0.000000 0.000001 -0.000003 -0.788276 -1.313748 4.256775 -134.311299 55.111755 -42.646076 -3.915097 -0.000012 -0.000030 0.000000 -0.000002 -0.000000 -6.914904 0.000001 -0.000000 0.000002 -0.000005 -30.585269 -6.096196 -0.000002 0.000012 -0.000042 0.000013 -0.000105 -1.749914 -0.000021 0.000031 -0.000003 0.000003 0.000004 -0.699960 -1.166626 -0.466652 -0.000003 -0.000002 -0.000002 0.788260 -1.313774 4.256738 103.782354 -44.083144 -34.087985 3.915181 0.000004 -0.000035 -0.000000 0.000000 0.000009 6.914923 -0.000035 -0.000004 0.000001 -0.000007 110.424939 6.096229 0.000070 -0.000007 0.000030 -0.000039 0.000038 1.749966 -0.000004 0.000027 0.000000 -0.000002 -0.000004 0.699961 -1.166615 -0.466633 0.000014 -0.000009 -0.000021 -2.338565 -0.252539 -0.551508 19.868180 -7.594256 0.438891 0.000018 -0.000019 -10.744973 8.999731 3.909290 -0.996984 -0.000018 0.000070 -10.930841 -0.000014 -0.000002 0.000001 0.000001 -4.087272 -1.487642 -0.000001 0.000002 -0.000001 2.338574 -0.252537 -0.551475 18.686040 -7.938473 0.409871 -0.000004 -0.000048 -10.744897 9.899853 0.485891 -1.163105 -0.000017 0.000004 -10.930865 0.000007 -0.000001 -0.000001 -0.000012 -4.087234 -1.487653 -0.000000 -0.000000 -0.000006 
